<svg xmlns="http://www.w3.org/2000/svg" xmlns:xlink="http://www.w3.org/1999/xlink" width="160.82" height="43.582" viewBox="0 0 160.82 43.582">
  <defs>
    <linearGradient id="linear-gradient" x1="0.5" x2="0.5" y2="1" gradientUnits="objectBoundingBox">
      <stop offset="0" stop-color="#ffaa4a"/>
      <stop offset="1" stop-color="#e6613f"/>
    </linearGradient>
  </defs>
  <g id="Group_130956" data-name="Group 130956" transform="translate(-156.664 -10752)">
    <path id="Path_171" data-name="Path 171" d="M43.582,29.429C41.365,42.286,30.774,52.1,18.141,52.1h-.832L2.5,29.429H43.582ZM3.015,0H17.743C31.3,0,42.511,11.309,43.535,25.546H15.354L0,.19A24.219,24.219,0,0,1,3.015,0Z" transform="translate(208.768 10752) rotate(90)" fill-rule="evenodd" fill="url(#linear-gradient)"/>
    <path id="Path_156236" data-name="Path 156236" d="M2.16-16.794v-2.983l3.24.013.014,2.97ZM2.16,0V-14.58H5.4L5.414,0ZM19.548,0V-7.02a13.7,13.7,0,0,0-.094-1.525,5.471,5.471,0,0,0-.439-1.613,3.125,3.125,0,0,0-1.026-1.276,3.055,3.055,0,0,0-1.843-.5,3.862,3.862,0,0,0-1.228.2,2.8,2.8,0,0,0-1.1.7,3.493,3.493,0,0,0-.79,1.35,6.813,6.813,0,0,0-.3,2.194L10.8-8.316a7.731,7.731,0,0,1,.722-3.375,5.742,5.742,0,0,1,2.126-2.41A6.289,6.289,0,0,1,17.1-15a5.837,5.837,0,0,1,2.673.54,4.721,4.721,0,0,1,1.674,1.377A5.994,5.994,0,0,1,22.37-11.3a9.142,9.142,0,0,1,.385,1.789q.088.844.088,1.37V0ZM9.437,0V-14.58h2.9v4.523h.392V0ZM31.968.405a6.119,6.119,0,0,1-3.51-1.013,6.7,6.7,0,0,1-2.322-2.754,9.079,9.079,0,0,1-.823-3.929,9.037,9.037,0,0,1,.83-3.949A6.638,6.638,0,0,1,28.5-13.979a6.374,6.374,0,0,1,3.591-1.006,5.858,5.858,0,0,1,3.49,1.006,6.245,6.245,0,0,1,2.14,2.747,10.125,10.125,0,0,1,.729,3.942,10.1,10.1,0,0,1-.729,3.922A6.193,6.193,0,0,1,35.546-.608,6.08,6.08,0,0,1,31.968.405Zm.5-2.916a3.44,3.44,0,0,0,2.113-.6,3.419,3.419,0,0,0,1.175-1.681,7.676,7.676,0,0,0,.371-2.5,7.662,7.662,0,0,0-.371-2.5A3.476,3.476,0,0,0,34.6-11.468a3.234,3.234,0,0,0-2.025-.6,3.488,3.488,0,0,0-2.16.641A3.742,3.742,0,0,0,29.16-9.7a6.855,6.855,0,0,0-.4,2.41,7,7,0,0,0,.4,2.423,3.734,3.734,0,0,0,1.222,1.721A3.329,3.329,0,0,0,32.467-2.511ZM36.126,0V-10.233h-.4V-19.44H39V0ZM48.249.419a5.837,5.837,0,0,1-2.673-.54A4.721,4.721,0,0,1,43.9-1.5a5.994,5.994,0,0,1-.918-1.782A9.142,9.142,0,0,1,42.6-5.069q-.088-.844-.088-1.37V-14.58h3.294v7.02A13.775,13.775,0,0,0,45.9-6.041a5.476,5.476,0,0,0,.439,1.62,3.125,3.125,0,0,0,1.026,1.276,3.055,3.055,0,0,0,1.843.5,3.862,3.862,0,0,0,1.229-.2,2.8,2.8,0,0,0,1.1-.7,3.49,3.49,0,0,0,.79-1.357,6.825,6.825,0,0,0,.3-2.187l1.931.824a7.731,7.731,0,0,1-.722,3.375,5.742,5.742,0,0,1-2.126,2.41A6.289,6.289,0,0,1,48.249.419ZM53.015,0V-4.523h-.392V-14.58H55.89V0ZM65.3.405A7.336,7.336,0,0,1,60.912-.81,5.039,5.039,0,0,1,58.86-4.226l3.321-.513a2.805,2.805,0,0,0,1.134,1.7,3.74,3.74,0,0,0,2.214.621,3.051,3.051,0,0,0,1.816-.466,1.492,1.492,0,0,0,.641-1.276,1.273,1.273,0,0,0-.236-.8,2.339,2.339,0,0,0-1.033-.587q-.8-.284-2.443-.716A14.617,14.617,0,0,1,61.358-7.31a3.817,3.817,0,0,1-1.552-1.33,3.494,3.494,0,0,1-.472-1.863,4.011,4.011,0,0,1,.715-2.376,4.571,4.571,0,0,1,2-1.559,7.672,7.672,0,0,1,3.024-.547,8.076,8.076,0,0,1,3.017.526,5.236,5.236,0,0,1,2.126,1.5,4.492,4.492,0,0,1,1,2.282l-3.321.594a2.1,2.1,0,0,0-.844-1.472,3.475,3.475,0,0,0-1.924-.607,3.244,3.244,0,0,0-1.849.344,1.278,1.278,0,0,0-.7,1.154,1,1,0,0,0,.284.715A3.035,3.035,0,0,0,64-9.356q.857.3,2.558.729a12.181,12.181,0,0,1,2.788,1.019,3.8,3.8,0,0,1,1.512,1.37,3.763,3.763,0,0,1,.466,1.931,4.151,4.151,0,0,1-1.6,3.456A6.991,6.991,0,0,1,65.3.405ZM74.291,0V-14.58h2.876v3.551l-.351-.459a5.2,5.2,0,0,1,.722-1.33,3.938,3.938,0,0,1,1.087-.992,4.655,4.655,0,0,1,1.195-.574,5.672,5.672,0,0,1,1.343-.257,5.722,5.722,0,0,1,1.337.061v3.038a4.145,4.145,0,0,0-1.492-.122,3.442,3.442,0,0,0-1.519.472,3.327,3.327,0,0,0-1.1.932,3.866,3.866,0,0,0-.628,1.289,5.756,5.756,0,0,0-.2,1.559V0ZM85.334-16.794v-2.983l3.24.013.013,2.97ZM85.334,0V-14.58h3.24L88.587,0Z" transform="translate(228.896 10783.77)" fill="#fff"/>
  </g>
</svg>
